<svg width="887" height="671" viewBox="0 0 887 671" fill="none" xmlns="http://www.w3.org/2000/svg">
<path d="M415.5 144C415.5 144 377.5 117.308 328 103.308C278.5 89.3081 241.104 87.044 200.5 85.3081C146.781 83.0115 90 94.308 90 94.308V479.808C90 479.808 129.915 477.383 164 479.808C214.851 483.426 257.291 488.763 306 503.808C346.959 516.46 407 545.808 407 545.808V377.308V244" stroke="#088CD3" stroke-width="40"/>
<path d="M56 157.308H20V555C20 555 96.2982 546.792 143.5 549C175.13 550.48 193.361 550.11 227 556C262.102 561.055 314.214 581.12 335.5 590.5C352.114 597.821 371.186 605.972 383.5 612C412.914 626.399 439.5 646 439.5 646C439.5 646 488.686 614.645 527.5 597C559.52 582.443 575.092 573.853 609 564.5C632.811 557.932 646.544 555.96 671 552.5C712.024 546.697 729.075 546.713 770.5 547.5C818.329 548.408 883.5 557.5 883.5 557.5" stroke="#088CD3" stroke-width="40"/>
<path d="M159.856 379.717L227.843 188.808H277.559L345.545 379.717H297.57L253.695 237.903H251.707L207.708 379.717H159.856Z" fill="#0089D3"/>
<path d="M252 277.808L272.352 334.058H231.648L252 277.808Z" fill="#0089D3"/>
<path d="M468.5 144.5C468.5 144.5 491.443 128.666 507.5 121C522.239 113.963 546 106 546 106" stroke="#EEB446" stroke-width="40"/>
<path d="M688 84.5C688 84.5 727.794 84.8464 753.185 87.5271C774.031 89.7279 791 94.3899 791 94.3899V229" stroke="#EEB446" stroke-width="40"/>
<path fill-rule="evenodd" clip-rule="evenodd" d="M841 177H826V137H881V258.5C881 258.5 877.022 252.77 874 249.5C870.621 245.844 868.553 243.891 864.5 241C861.01 238.51 858.894 237.293 855 235.5C851.969 234.105 850.195 233.463 847 232.5C844.688 231.803 841 231.5 841 231.5V177Z" fill="#EEB446"/>
<path fill-rule="evenodd" clip-rule="evenodd" d="M841 439V396.245C841 396.245 845.288 394.626 848 393.5C851.955 391.857 854.216 391.005 858 389C860.397 387.73 864 385.5 864 385.5L869.5 381L875.5 375L881 368.5V439H841Z" fill="#EEB446"/>
<path d="M790.846 264H477.237C477.237 264 475.789 305.211 480.056 331C484.227 356.209 487.423 372.563 500.025 395.5C507.492 409.091 512.637 415.869 522.846 427C533.476 438.589 540.715 444.61 553.275 453C574.902 467.448 587.689 474.074 614.529 477.718C645.629 481.94 678.774 476.101 712.326 454.748C730.418 443.234 739.884 434.64 753.232 417.297C768.359 397.643 774.469 383.996 781.913 359.873C792.912 324.225 790.846 264 790.846 264Z" stroke="#50829F" stroke-width="40"/>
<path fill-rule="evenodd" clip-rule="evenodd" d="M855.791 502.878C855.791 502.878 778.152 495.767 728.898 497.98C677.085 500.307 646.04 502.875 600.04 514.854C570.296 522.6 543.841 533.648 512.988 548.109C501.526 553.482 486.911 561.101 474.961 567.495C469.029 570.668 460.124 575.531 460.124 575.531L457 577V560.5L457 544.5L457 543L457 542L457 538V532.074C457 532.074 483.543 517.735 496.012 511.89C527.671 497.052 556.705 484.806 589.96 476.145C639.96 463.125 674.246 460.395 727.103 458.02C779.357 455.673 838.685 460.731 860.209 463.122C870.679 464.286 881 465.213 881 465.213V477.5C880.996 477.5 881 487.5 881 487.5V505L875.5 504.5L868.5 504L855.791 502.878Z" fill="#EEB446"/>
<path d="M770.693 296.33H801.974C802.204 293.238 803.939 290.433 804.934 287.915C805.892 285.397 807.233 283.233 808.956 281.422C810.641 279.566 812.69 278.153 815.103 277.181C817.516 276.165 820.255 275.657 823.319 275.657C828.681 275.657 833.22 277.159 836.935 280.163C840.612 283.167 843.408 287.474 845.323 293.084C847.199 298.694 848.138 305.43 848.138 313.293C848.138 321.598 847.18 328.555 845.265 334.166C843.312 339.731 841.302 343.303 836.82 346.755C832.352 350.196 828.92 350.863 823.549 350.93C820.423 350.968 818.664 350.491 815.62 349.671C812.582 348.852 810.827 348.376 808.041 346.755C805.477 345.263 803.787 344.53 801.974 341.96C800.169 339.4 799.143 334.166 799.143 334.166L768 333.564C768.383 339.306 772.474 343.972 774.887 349.936C777.3 355.855 780.728 361.333 785.171 366.368C789.576 371.36 795.034 375.38 801.545 378.428C808.056 381.476 815.62 383 824.238 383C835.039 383 844.729 380.327 853.308 374.982C861.85 369.637 868.61 361.774 873.589 351.393C878.53 341.013 881 328.312 881 313.293C881 298.186 878.472 285.464 873.416 275.127C868.361 264.746 861.543 256.905 852.964 251.604C844.384 246.259 834.791 244 824.22 244C816.789 244 802.379 244 802.379 244L787.818 249.598C787.818 249.598 778.794 267.33 775.922 273.868C773.049 280.406 771.306 287.893 770.693 296.33Z" fill="#50829F"/>
<path d="M627.101 206.5C629.612 216.54 630.101 228 630.101 228C630.101 228 634.159 221.581 635.601 217C637.544 210.829 638.156 206.97 638.101 200.5C638.043 193.622 637.9 190.906 635.101 183C631.69 173.363 628.352 168.452 622.601 160C615.596 149.703 610.143 145.063 601.601 136C601.601 136 573.513 107.879 571.101 99.5C568.941 91.9943 571.101 79.5 571.101 79.5C571.101 79.5 567.674 83.5313 566.101 86.5C563.991 90.4836 562.692 93.126 561.601 97.5C560.071 103.636 559.818 107.182 560.101 113.5C560.518 122.816 563.273 128.022 568.101 136C572.753 143.686 577.322 146.575 583.601 153C593.067 162.685 600.378 166.142 609.101 176.5C617.928 186.981 623.776 193.206 627.101 206.5Z" fill="#F3302D" stroke="#F3302D" stroke-width="5"/>
<path d="M590.101 44.5C593.461 36.2138 602.101 25 602.101 25L605.101 22C605.101 22 600.791 48.1044 608.101 66C613.972 80.3727 633.601 96.5 633.601 96.5C633.601 96.5 659.77 118.115 666.601 137.5C670.026 147.219 671.101 153.195 671.101 163.5C671.101 173.805 667.505 186.274 664.101 196C660.141 207.316 651.101 216 651.101 216C651.101 216 659.905 187.433 653.601 171C649.068 159.184 633.601 145.5 633.601 145.5C633.601 145.5 609.658 126.017 599.601 109.5C591.719 96.5546 587.159 88.161 586.101 73C585.318 61.7883 585.782 55.1499 590.101 44.5Z" fill="#F3302D" stroke="#F3302D" stroke-width="5"/>
<path d="M636.101 24.5C639.838 17.2496 648.601 8 648.601 8L646.101 21C646.101 21 643.42 39.2959 646.101 50.5C647.713 57.2354 649.084 61.0341 652.601 67C655.08 71.2051 657.461 72.8942 660.101 77C662.748 81.1156 664.086 83.5411 666.101 88C669.791 96.1634 672.601 110 672.601 110L646.101 85.5C646.101 85.5 634.082 72.8007 631.101 62.5C628.71 54.2386 629.039 49.0345 630.101 40.5C630.949 33.685 632.955 30.6045 636.101 24.5Z" fill="#F3302D" stroke="#F3302D" stroke-width="5"/>
<path fill-rule="evenodd" clip-rule="evenodd" d="M585.204 314.516H621.435V305.201C621.435 304.882 621.562 304.577 621.788 304.352C622.014 304.127 622.32 304 622.639 304H639.204C639.523 304 639.83 304.127 640.056 304.352C640.281 304.577 640.408 304.882 640.408 305.201V314.516H676.895C677.214 314.516 677.52 314.642 677.746 314.868C677.972 315.093 678.099 315.398 678.099 315.717V333.001C678.099 333.157 678.067 333.311 678.007 333.455C677.946 333.598 677.856 333.728 677.744 333.837C677.632 333.946 677.499 334.031 677.353 334.087C677.207 334.143 677.051 334.17 676.895 334.165H670.108C669.469 339.111 668.357 343.985 666.788 348.72C665.113 353.745 663.001 358.616 660.476 363.275C658.189 367.39 655.655 371.364 652.887 375.173C650.26 378.812 647.377 382.451 644.312 386.089C649.479 392.127 655.129 397.737 661.205 402.864C667.937 408.51 675.03 413.713 682.441 418.438C682.575 418.519 682.691 418.627 682.782 418.754C682.874 418.882 682.938 419.026 682.972 419.179C683.006 419.332 683.009 419.49 682.98 419.644C682.952 419.798 682.892 419.945 682.806 420.075L674.231 433.466C674.047 433.723 673.773 433.904 673.462 433.971C673.152 434.038 672.828 433.988 672.553 433.829C664.615 428.764 657.01 423.198 649.785 417.164C643.245 411.707 637.145 405.745 631.542 399.334C626.835 403.81 621.873 408.176 616.692 412.361C610.818 417.055 604.688 421.603 598.449 425.933C598.319 426.024 598.173 426.089 598.019 426.123C597.865 426.158 597.705 426.162 597.549 426.135C597.393 426.108 597.244 426.05 597.11 425.966C596.977 425.881 596.861 425.771 596.77 425.642L587.758 412.579C587.663 412.455 587.595 412.312 587.557 412.161C587.52 412.009 587.515 411.851 587.543 411.697C587.57 411.543 587.63 411.396 587.717 411.266C587.804 411.136 587.918 411.026 588.05 410.942C594.216 406.685 600.237 402.209 605.965 397.551C611.037 393.44 615.889 389.182 620.377 384.78C615.999 378.296 612.155 371.47 608.884 364.366C605.295 356.57 602.331 348.504 600.018 340.242C599.948 339.938 599.996 339.62 600.152 339.35C600.307 339.08 600.559 338.879 600.857 338.786L616.218 334.492C616.369 334.449 616.527 334.436 616.683 334.454C616.839 334.473 616.99 334.523 617.126 334.601C617.262 334.679 617.381 334.784 617.476 334.909C617.571 335.034 617.639 335.177 617.677 335.329C619.532 342.016 621.873 348.559 624.682 354.906C627.145 360.412 629.973 365.748 633.147 370.88C635.154 368.369 637.051 365.895 638.803 363.384C640.554 360.873 642.67 357.416 644.312 354.36C646.165 350.963 647.739 347.422 649.019 343.771C650.098 340.575 650.94 337.303 651.537 333.983H585.204C585.048 333.988 584.892 333.961 584.746 333.905C584.6 333.849 584.467 333.764 584.355 333.655C584.242 333.547 584.153 333.416 584.092 333.273C584.031 333.129 584 332.975 584 332.819V315.717C584 315.398 584.127 315.093 584.353 314.868C584.578 314.642 584.885 314.516 585.204 314.516Z" fill="#50829F"/>
</svg>
