<svg width="525" height="534" viewBox="0 0 525 534" fill="none" xmlns="http://www.w3.org/2000/svg">
<path d="M345.846 264H32.2367C32.2367 264 30.7886 305.211 35.0558 331C39.2273 356.209 42.4227 372.563 55.0247 395.5C62.4922 409.091 67.6368 415.869 77.8463 427C88.476 438.589 95.7154 444.61 108.275 453C129.902 467.448 142.689 474.074 169.529 477.718C200.629 481.94 233.774 476.101 267.326 454.748C285.418 443.234 294.884 434.64 308.232 417.297C323.359 397.643 329.469 383.996 336.913 359.873C347.912 324.225 345.846 264 345.846 264Z" stroke="#50829F" stroke-width="40"/>
<path d="M325.693 296.33H356.974C357.204 293.238 358.939 290.433 359.934 287.915C360.892 285.397 362.233 283.233 363.956 281.422C365.641 279.566 367.69 278.153 370.103 277.181C372.516 276.165 375.255 275.657 378.319 275.657C383.681 275.657 388.22 277.159 391.935 280.163C395.612 283.167 398.408 287.474 400.323 293.084C402.199 298.694 403.138 305.43 403.138 313.293C403.138 321.598 402.18 328.555 400.265 334.166C398.312 339.731 396.302 343.303 391.82 346.755C387.352 350.196 383.92 350.863 378.549 350.93C375.423 350.968 373.664 350.491 370.62 349.671C367.582 348.852 365.827 348.376 363.041 346.755C360.477 345.263 358.787 344.53 356.974 341.96C355.169 339.4 354.143 334.166 354.143 334.166L323 333.564C323.383 339.306 327.474 343.972 329.887 349.936C332.3 355.855 335.728 361.333 340.171 366.368C344.576 371.36 350.034 375.38 356.545 378.428C363.056 381.476 370.62 383 379.238 383C390.039 383 399.729 380.327 408.308 374.982C416.85 369.637 423.61 361.774 428.589 351.393C433.53 341.013 436 328.312 436 313.293C436 298.186 433.472 285.464 428.416 275.127C423.361 264.746 416.543 256.905 407.964 251.604C399.384 246.259 389.791 244 379.22 244C371.789 244 357.379 244 357.379 244L342.818 249.598C342.818 249.598 333.794 267.33 330.922 273.868C328.049 280.406 326.306 287.893 325.693 296.33Z" fill="#50829F"/>
<path d="M182.101 206.5C184.612 216.54 185.101 228 185.101 228C185.101 228 189.159 221.581 190.601 217C192.544 210.829 193.156 206.97 193.101 200.5C193.043 193.622 192.9 190.906 190.101 183C186.69 173.363 183.352 168.452 177.601 160C170.596 149.703 165.143 145.063 156.601 136C156.601 136 128.513 107.879 126.101 99.5C123.941 91.9943 126.101 79.5 126.101 79.5C126.101 79.5 122.674 83.5313 121.101 86.5C118.991 90.4836 117.692 93.126 116.601 97.5C115.071 103.636 114.818 107.182 115.101 113.5C115.518 122.816 118.273 128.022 123.101 136C127.753 143.686 132.322 146.575 138.601 153C148.067 162.685 155.378 166.142 164.101 176.5C172.928 186.981 178.776 193.206 182.101 206.5Z" fill="#F3302D" stroke="#F3302D" stroke-width="5"/>
<path d="M145.101 44.5C148.461 36.2138 157.101 25 157.101 25L160.101 22C160.101 22 155.791 48.1044 163.101 66C168.972 80.3727 188.601 96.5 188.601 96.5C188.601 96.5 214.77 118.115 221.601 137.5C225.026 147.219 226.101 153.195 226.101 163.5C226.101 173.805 222.505 186.274 219.101 196C215.141 207.316 206.101 216 206.101 216C206.101 216 214.905 187.433 208.601 171C204.068 159.184 188.601 145.5 188.601 145.5C188.601 145.5 164.658 126.017 154.601 109.5C146.719 96.5546 142.159 88.161 141.101 73C140.318 61.7883 140.782 55.1499 145.101 44.5Z" fill="#F3302D" stroke="#F3302D" stroke-width="5"/>
<path d="M191.101 24.5C194.838 17.2496 203.601 8 203.601 8L201.101 21C201.101 21 198.42 39.2959 201.101 50.5C202.713 57.2354 204.084 61.0341 207.601 67C210.08 71.2051 212.461 72.8942 215.101 77C217.748 81.1156 219.086 83.5411 221.101 88C224.791 96.1634 227.601 110 227.601 110L201.101 85.5C201.101 85.5 189.082 72.8007 186.101 62.5C183.71 54.2386 184.039 49.0345 185.101 40.5C185.949 33.685 187.955 30.6045 191.101 24.5Z" fill="#F3302D" stroke="#F3302D" stroke-width="5"/>
<path fill-rule="evenodd" clip-rule="evenodd" d="M134.469 317.516H178.682V308.201C178.682 307.882 178.837 307.577 179.112 307.352C179.388 307.127 179.762 307 180.151 307H200.365C200.755 307 201.129 307.127 201.404 307.352C201.68 307.577 201.835 307.882 201.835 308.201V317.516H246.359C246.749 317.516 247.123 317.642 247.398 317.868C247.674 318.093 247.828 318.398 247.828 318.717V336.001C247.828 336.157 247.79 336.311 247.716 336.455C247.641 336.598 247.533 336.728 247.395 336.837C247.258 336.946 247.096 337.031 246.918 337.087C246.74 337.143 246.55 337.17 246.359 337.165H238.078C237.298 342.111 235.941 346.985 234.026 351.72C231.982 356.745 229.404 361.616 226.323 366.275C223.533 370.39 220.44 374.364 217.062 378.173C213.856 381.812 210.339 385.451 206.599 389.089C212.904 395.127 219.798 400.737 227.214 405.864C235.428 411.51 244.084 416.713 253.127 421.438C253.29 421.519 253.432 421.627 253.544 421.754C253.655 421.882 253.734 422.026 253.775 422.179C253.817 422.332 253.82 422.49 253.786 422.644C253.751 422.798 253.678 422.945 253.572 423.075L243.109 436.466C242.884 436.723 242.549 436.904 242.171 436.971C241.792 437.038 241.396 436.988 241.061 436.829C231.374 431.764 222.094 426.198 213.277 420.164C205.296 414.707 197.853 408.745 191.015 402.334C185.272 406.81 179.216 411.176 172.894 415.361C165.725 420.055 158.245 424.603 150.632 428.933C150.474 429.024 150.296 429.089 150.107 429.123C149.919 429.158 149.724 429.162 149.534 429.135C149.344 429.108 149.162 429.05 148.999 428.966C148.836 428.881 148.695 428.771 148.584 428.642L137.586 415.579C137.47 415.455 137.386 415.312 137.341 415.161C137.296 415.009 137.29 414.851 137.323 414.697C137.357 414.543 137.429 414.396 137.536 414.266C137.642 414.136 137.781 414.026 137.942 413.942C145.467 409.685 152.813 405.209 159.804 400.551C165.993 396.44 171.914 392.182 177.391 387.78C172.048 381.296 167.357 374.47 163.366 367.366C158.987 359.57 155.369 351.504 152.546 343.242C152.462 342.938 152.52 342.62 152.71 342.35C152.9 342.08 153.207 341.879 153.57 341.786L172.315 337.492C172.499 337.449 172.692 337.436 172.883 337.454C173.073 337.473 173.257 337.523 173.424 337.601C173.59 337.679 173.735 337.784 173.851 337.909C173.966 338.034 174.05 338.177 174.096 338.329C176.359 345.016 179.216 351.559 182.645 357.906C185.65 363.412 189.101 368.748 192.974 373.88C195.423 371.369 197.738 368.895 199.876 366.384C202.013 363.873 204.595 360.416 206.599 357.36C208.86 353.963 210.781 350.422 212.342 346.771C213.659 343.575 214.686 340.303 215.415 336.983H134.469C134.278 336.988 134.088 336.961 133.91 336.905C133.732 336.849 133.57 336.764 133.433 336.655C133.296 336.547 133.187 336.416 133.113 336.273C133.038 336.129 133 335.975 133 335.819V318.717C133 318.398 133.155 318.093 133.43 317.868C133.706 317.642 134.08 317.516 134.469 317.516Z" fill="#50829F"/>
</svg>
