<svg xmlns="http://www.w3.org/2000/svg" xml:space="preserve" viewBox="0 0 512 512"><circle cx="255.997" cy="255.996" r="255.996" style="fill:#3a99d7"/><path d="M511.574 241.359c.273 4.844.424 9.725.424 14.641 0 141.384-114.616 256-256 256a260.7 260.7 0 0 1-14.738-.431L121.451 391.76l270.688-269.828L511.57 241.363l.004-.004z" style="fill:#2682bf"/><path d="M128.87 117.483h254.26c6.289 0 11.386 5.098 11.386 11.386v254.26c0 6.289-5.098 11.386-11.386 11.386H128.87c-6.289 0-11.386-5.098-11.386-11.386v-254.26c0-6.289 5.097-11.386 11.386-11.386z" style="fill:#e84f4f"/><path d="M124.577 158.407h262.85v229.03h-262.85z" style="fill:#efeff0"/><path d="M213.297 130.664h155.217a2.362 2.362 0 0 1 2.362 2.362v6.431a2.362 2.362 0 0 1-2.362 2.362H213.297a2.362 2.362 0 0 1-2.362-2.362v-6.431a2.361 2.361 0 0 1 2.362-2.362zM143.867 128.099a8.148 8.148 0 0 1 0 16.296c-4.499 0-8.146-3.65-8.146-8.15a8.15 8.15 0 0 1 8.146-8.146zm42.518 0c4.499 0 8.15 3.65 8.15 8.146 0 4.499-3.65 8.15-8.15 8.15-4.496 0-8.146-3.65-8.146-8.15a8.15 8.15 0 0 1 8.146-8.146zm-21.259 0c4.499 0 8.15 3.65 8.15 8.146 0 4.499-3.65 8.15-8.15 8.15-4.496 0-8.146-3.65-8.146-8.15a8.15 8.15 0 0 1 8.146-8.146z" style="fill:#ebecec"/><path d="m284.741 358.158-37.253-21.237-3.431-1.956 3.431-1.956 37.253-21.237 3.366-1.924v18.151c11.171-3.704 20.842-10.725 27.83-19.903 7.395-9.711 11.785-21.837 11.785-35 0-15.965-6.474-30.423-16.935-40.885s-24.92-16.939-40.885-16.939l-5.272.23-.367-12.388a72.09 72.09 0 0 1 5.639-.226c19.385 0 36.943 7.862 49.645 20.565s20.565 30.257 20.565 49.645c0 16.371-5.61 31.437-15.008 43.377-9.236 11.732-22.147 20.449-36.994 24.427v19.176l-3.366-1.92h-.003z" style="fill:#c94545"/><path d="M218.17 231.53c-.946 1.047-1.698 1.881-2.122 2.464a530.958 530.958 0 0 1 3.988 2.752c7.488 5.186 10.641 7.372 22.741 12.886l.842.385-.615.694-6.283 7.113-.291.327-.417-.129c-8.401-2.572-19.666-11.246-27.093-16.968l-.302-.234c-3.075 2.352-7.894 5.953-12.879 9.294-5.247 3.51-10.689 6.733-14.53 7.909l-.417.129-.295-.327-6.086-6.887-.611-.694.842-.385a103.762 103.762 0 0 1 4.888-2.075c2.924-1.18 5.193-2.093 9.718-4.934 1.963-1.23 5.499-3.532 8.423-5.675 1.579-1.155 2.964-2.251 3.783-3.082-2.576-2.468-6.19-6.614-9.268-11.182-2.464-3.654-4.6-7.6-5.621-11.207l-.241-.867.903-.004 10.652-.068.413-.004.194.367a28.322 28.322 0 0 1 1.489 3.215c.536 1.327 1 2.482 3.215 5.762 1.086 1.604 2.05 2.946 3.032 4.165a38.63 38.63 0 0 0 2.874 3.176c2.301-1.579 6.064-6.434 8.879-11.936 2.147-4.19 3.715-8.735 3.629-12.433l-48.257-.079-.687-.004v-10.638h.687l29.991-.004v-9.203H213.909l-.004.687-.011 8.516 30.001-.007.687-.004v.69l.004 9.204.004.683-.69.004-11.581.004c-.907 13.932-9.642 23.614-14.156 28.609h-.004l.011-.005zM171.894 365.545l13.792.065 5.7-17.368 34.699-.04 5.678 17.368 13.602-.011-28.833-73.397-15.782-.036-28.862 73.419h.006zm23.439-27.211 26.696.19-13.127-33.958-13.569 33.768z" style="fill:#006775"/></svg>
